<svg width="20" height="20" viewBox="0 0 20 20" fill="none" xmlns="http://www.w3.org/2000/svg">
<path d="M14 2.33333V4H17C17.2652 4 17.5196 4.10536 17.7071 4.29289C17.8946 4.48043 18 4.73478 18 5C18 5.26522 17.8946 5.51957 17.7071 5.70711C17.5196 5.89464 17.2652 6 17 6H3C2.73478 6 2.48043 5.89464 2.29289 5.70711C2.10536 5.51957 2 5.26522 2 5C2 4.73478 2.10536 4.48043 2.29289 4.29289C2.48043 4.10536 2.73478 4 3 4H6V2.33333C6 1.04533 7.04533 0 8.33333 0H11.6667C12.9547 0 14 1.04533 14 2.33333ZM5.328 8.9L6.208 17.7C6.21627 17.7823 6.25483 17.8585 6.31618 17.914C6.37753 17.9694 6.45731 18.0001 6.54 18H13.46C13.5427 18.0001 13.6225 17.9694 13.6838 17.914C13.7452 17.8585 13.7837 17.7823 13.792 17.7L14.672 8.9C14.7051 8.6417 14.8376 8.40648 15.0414 8.24437C15.2452 8.08226 15.5042 8.00604 15.7633 8.03191C16.0224 8.05779 16.2612 8.18373 16.4289 8.38294C16.5966 8.58215 16.68 8.83893 16.6613 9.09867L15.7813 17.8987C15.7244 18.4746 15.4552 19.0088 15.0261 19.3972C14.597 19.7856 14.0388 20.0005 13.46 20H6.54C5.96161 19.9999 5.40386 19.785 4.97494 19.397C4.54602 19.009 4.27651 18.4755 4.21867 17.9L3.33867 9.1C3.32197 8.9676 3.33194 8.8332 3.36799 8.70471C3.40404 8.57623 3.46544 8.45625 3.54858 8.35187C3.63172 8.24748 3.73491 8.16079 3.85207 8.0969C3.96923 8.03302 4.098 7.99323 4.23077 7.97988C4.36355 7.96653 4.49766 7.97989 4.62519 8.01918C4.75273 8.05846 4.87111 8.12288 4.97336 8.20863C5.07562 8.29437 5.15967 8.39972 5.22058 8.51846C5.28148 8.6372 5.31801 8.76693 5.328 8.9ZM8 2.33333V4H12V2.33333C12 2.24493 11.9649 2.16014 11.9024 2.09763C11.8399 2.03512 11.7551 2 11.6667 2H8.33333C8.24493 2 8.16014 2.03512 8.09763 2.09763C8.03512 2.16014 8 2.24493 8 2.33333Z" fill="#181818"/>
</svg>
