<svg width="20" height="20" viewBox="0 0 20 20" fill="none" xmlns="http://www.w3.org/2000/svg">
<path d="M15.9173 11.1352L15.9174 11.1353C15.987 11.2053 16.0364 11.2929 16.0602 11.3888C16.084 11.4847 16.0813 11.5852 16.0524 11.6797L16.0524 11.6797C15.6676 12.9359 14.8965 14.0386 13.8487 14.8311C12.7768 15.6421 11.4684 16.0791 10.1242 16.075M15.9173 11.1352L15.9807 11.6578C15.6005 12.8988 14.8386 13.9883 13.8034 14.7713C12.7446 15.5724 11.4522 16.0041 10.1244 16C8.98633 16.001 7.87049 15.6847 6.90225 15.0866C5.93402 14.4885 5.15176 13.6322 4.64335 12.6139C4.13494 11.5957 3.92053 10.4559 4.02421 9.32255C4.12789 8.18919 4.54555 7.10719 5.23027 6.19812C6.01322 5.16291 7.10274 4.40101 8.34377 4.02085M15.9173 11.1352C15.8473 11.0651 15.7595 11.0153 15.6633 10.9913C15.5673 10.9672 15.4664 10.9698 15.3717 10.9987M15.9173 11.1352L15.8642 11.1882C15.8038 11.1277 15.7281 11.0848 15.6451 11.064C15.5622 11.0433 15.4752 11.0455 15.3934 11.0705M10.1242 16.075L10.1244 16L10.1245 16.075C10.1244 16.075 10.1243 16.075 10.1242 16.075ZM10.1242 16.075C8.97226 16.076 7.84285 15.7558 6.86284 15.1504C5.88274 14.5449 5.09089 13.6782 4.57625 12.6475C4.06161 11.6168 3.84457 10.463 3.94952 9.31572C4.05447 8.16847 4.47725 7.07321 5.17036 6.153L5.17045 6.15288C5.96292 5.10508 7.06568 4.33392 8.3218 3.94914M8.3218 3.94914C8.32176 3.94915 8.32173 3.94916 8.3217 3.94917L8.34377 4.02085M8.3218 3.94914L8.34377 4.02085M8.3218 3.94914C8.41659 3.91997 8.51755 3.91718 8.61381 3.94108C8.7101 3.96499 8.79806 4.01469 8.86822 4.08485C8.93837 4.15501 8.98808 4.24296 9.01198 4.33926C9.03588 4.4355 9.0331 4.53642 9.00395 4.6312M8.34377 4.02085C8.42556 3.99566 8.51267 3.99325 8.59573 4.01387C8.6788 4.03449 8.75467 4.07737 8.81518 4.13788C8.8757 4.1984 8.91857 4.27427 8.93919 4.35733C8.95982 4.44039 8.9574 4.5275 8.93222 4.6093M8.93222 4.6093L9.00401 4.631C9.00399 4.63107 9.00397 4.63113 9.00395 4.6312M8.93222 4.6093C8.66085 5.50694 8.6381 6.46139 8.86638 7.37094C9.09467 8.2805 9.56545 9.11107 10.2285 9.77418C10.8916 10.4373 11.7222 10.9081 12.6318 11.1363C13.5413 11.3646 14.4958 11.3419 15.3934 11.0705M8.93222 4.6093L9.0039 4.63137C9.00392 4.63131 9.00393 4.63125 9.00395 4.6312M9.00395 4.6312C8.73656 5.51579 8.71416 6.45636 8.93913 7.35268C9.16411 8.24908 9.62808 9.06764 10.2816 9.72114C10.9351 10.3746 11.7536 10.8386 12.65 11.0636C13.5464 11.2886 14.4871 11.2662 15.3717 10.9987M15.3934 11.0705L15.3715 10.9988C15.3716 10.9988 15.3717 10.9987 15.3717 10.9987M15.3934 11.0705L15.3717 10.9987M7.69561 6.11405V6.11393C7.69576 5.86517 7.71061 5.61668 7.74008 5.36976C7.07734 5.72156 6.49872 6.2139 6.04507 6.81298C5.30507 7.79568 4.94494 9.01262 5.03096 10.2398C5.11699 11.467 5.64343 12.6218 6.51336 13.4917C7.38329 14.3615 8.53817 14.8879 9.76538 14.9738C10.9925 15.0597 12.2094 14.6995 13.1921 13.9594L7.69561 6.11405ZM7.69561 6.11405C7.69735 7.75649 8.35057 9.33116 9.51195 10.4925C10.6733 11.6539 12.248 12.3071 13.8904 12.3089H13.8905C14.1399 12.3088 14.3889 12.2939 14.6364 12.2644M7.69561 6.11405L14.6364 12.2644M14.6364 12.2644C14.2843 12.9272 13.7916 13.5058 13.1922 13.9593L14.6364 12.2644Z" fill="#181818" stroke="#181818" stroke-width="0.15"/>
</svg>
