<svg width="20" height="20" viewBox="0 0 20 20" fill="none" xmlns="http://www.w3.org/2000/svg">
<path d="M2.76661 8.5963C3.02931 8.63045 3.29481 8.55884 3.50472 8.39723C3.71463 8.23562 3.85174 7.99725 3.88589 7.73455C3.92004 7.47185 3.84843 7.20634 3.68682 6.99643C3.52522 6.78653 3.28684 6.64942 3.02414 6.61527L1.28083 6.17944C1.15374 6.14048 1.0201 6.1275 0.887879 6.14127C0.755661 6.15505 0.627567 6.19529 0.511231 6.25962C0.394896 6.32394 0.292698 6.41102 0.210727 6.51568C0.128756 6.62033 0.0686893 6.74041 0.0341061 6.86877C-0.000477152 6.99713 -0.00886962 7.13113 0.00942897 7.2628C0.0277276 7.39447 0.0723427 7.52111 0.140616 7.63517C0.208889 7.74923 0.299424 7.84839 0.406826 7.92672C0.514227 8.00506 0.636298 8.06097 0.765765 8.09113L2.50907 8.55668C2.59205 8.58437 2.67914 8.59777 2.76661 8.5963ZM6.58999 3.05932C6.64804 3.27541 6.77754 3.46548 6.9574 3.59858C7.13726 3.73168 7.35689 3.79996 7.58051 3.7923C7.66581 3.80599 7.75274 3.80599 7.83804 3.7923C8.08945 3.72275 8.30327 3.55684 8.43309 3.33059C8.5629 3.10434 8.59823 2.83601 8.5314 2.58387L8.06586 0.840564C8.0357 0.711097 7.97978 0.589026 7.90145 0.481624C7.82311 0.374223 7.72396 0.283688 7.6099 0.215415C7.49583 0.147141 7.3692 0.102526 7.23753 0.0842276C7.10586 0.065929 6.97185 0.0743214 6.8435 0.108905C6.71514 0.143488 6.59506 0.203554 6.4904 0.285525C6.38575 0.367496 6.29867 0.469694 6.23434 0.58603C6.17002 0.702366 6.12977 0.830459 6.116 0.962678C6.10222 1.0949 6.1152 1.22854 6.15417 1.35563L6.58999 3.05932ZM11.3742 12.9645C11.2816 12.8671 11.1703 12.7895 11.0468 12.7365C10.9234 12.6835 10.7904 12.6562 10.6561 12.6562C10.5217 12.6562 10.3888 12.6835 10.2653 12.7365C10.1419 12.7895 10.0305 12.8671 9.93793 12.9645L6.47113 16.4907C6.06352 16.8818 5.52051 17.1001 4.95564 17.1001C4.39077 17.1001 3.84777 16.8818 3.44016 16.4907C3.2395 16.2926 3.08019 16.0566 2.97145 15.7965C2.86271 15.5363 2.80672 15.2572 2.80672 14.9752C2.80672 14.6933 2.86271 14.4141 2.97145 14.1539C3.08019 13.8938 3.2395 13.6578 3.44016 13.4597L6.96639 9.99292C7.07008 9.90413 7.15429 9.79485 7.21375 9.67197C7.2732 9.54908 7.30661 9.41523 7.31188 9.27881C7.31715 9.1424 7.29416 9.00637 7.24437 8.87926C7.19457 8.75216 7.11903 8.63671 7.0225 8.54018C6.92597 8.44365 6.81053 8.36812 6.68342 8.31832C6.55631 8.26852 6.42028 8.24554 6.28387 8.25081C6.14746 8.25608 6.01361 8.28948 5.89072 8.34894C5.76783 8.40839 5.65856 8.49261 5.56976 8.5963L2.01381 12.0532C1.62879 12.4382 1.32337 12.8953 1.11499 13.3984C0.90662 13.9014 0.799371 14.4406 0.799371 14.9851C0.799371 15.5296 0.90662 16.0688 1.11499 16.5719C1.32337 17.0749 1.62879 17.532 2.01381 17.917C2.39884 18.3021 2.85593 18.6075 3.35899 18.8159C3.86205 19.0242 4.40123 19.1315 4.94574 19.1315C5.49025 19.1315 6.02942 19.0242 6.53248 18.8159C7.03554 18.6075 7.49264 18.3021 7.87766 17.917L11.3742 14.4205C11.4747 14.3278 11.555 14.2152 11.6098 14.0899C11.6647 13.9646 11.6931 13.8293 11.6931 13.6925C11.6931 13.5557 11.6647 13.4204 11.6098 13.2951C11.555 13.1698 11.4747 13.0572 11.3742 12.9645ZM3.18262 4.63424C3.36712 4.81723 3.61613 4.92039 3.87598 4.92149C4.00634 4.92224 4.13557 4.89725 4.25625 4.84796C4.37693 4.79867 4.48669 4.72604 4.57925 4.63424C4.76373 4.44865 4.86728 4.1976 4.86728 3.93592C4.86728 3.67424 4.76373 3.4232 4.57925 3.23761L3.30148 1.95985C3.112 1.79757 2.86825 1.71278 2.61897 1.72241C2.36968 1.73204 2.1332 1.83538 1.9568 2.01179C1.78039 2.18819 1.67705 2.42467 1.66742 2.67395C1.65779 2.92324 1.74259 3.16699 1.90486 3.35647L3.18262 4.63424ZM19.1101 11.8947L17.3668 11.4292C17.2376 11.3845 17.1006 11.3671 16.9643 11.378C16.8281 11.3889 16.6955 11.4278 16.5751 11.4924C16.4546 11.557 16.3488 11.6459 16.2644 11.7533C16.1799 11.8608 16.1186 11.9846 16.0844 12.1169C16.0501 12.2493 16.0436 12.3872 16.0652 12.5222C16.0868 12.6572 16.1362 12.7862 16.2101 12.9011C16.2841 13.0161 16.381 13.1145 16.4948 13.1902C16.6087 13.2659 16.7369 13.3172 16.8715 13.3409L18.6148 13.8064H18.8724C19.1351 13.8406 19.4006 13.769 19.6105 13.6073C19.8204 13.4457 19.9575 13.2074 19.9917 12.9447C20.0258 12.682 19.9542 12.4164 19.7926 12.2065C19.631 11.9966 19.3926 11.8595 19.1299 11.8254L19.1101 11.8947ZM13.2859 16.9265C13.2515 16.801 13.1927 16.6834 13.1128 16.5806C13.033 16.4777 12.9336 16.3917 12.8205 16.3273C12.7073 16.2629 12.5826 16.2214 12.4534 16.2053C12.3242 16.1891 12.1931 16.1986 12.0675 16.2332C11.8161 16.3027 11.6023 16.4686 11.4725 16.6949C11.3427 16.9211 11.3074 17.1895 11.3742 17.4416L11.8397 19.1849C11.8978 19.401 12.0273 19.5911 12.2071 19.7242C12.387 19.8573 12.6066 19.9255 12.8302 19.9179C12.9158 19.9276 13.0022 19.9276 13.0878 19.9179C13.2142 19.8846 13.3329 19.8265 13.4368 19.7471C13.5407 19.6677 13.6279 19.5685 13.6932 19.4552C13.7586 19.342 13.8009 19.2169 13.8177 19.0872C13.8345 18.9575 13.8254 18.8257 13.791 18.6996L13.2859 16.9265ZM16.6932 15.3714C16.5038 15.2091 16.26 15.1244 16.0107 15.134C15.7614 15.1436 15.525 15.247 15.3486 15.4234C15.1722 15.5998 15.0688 15.8362 15.0592 16.0855C15.0496 16.3348 15.1343 16.5786 15.2966 16.768L16.5744 18.0458C16.76 18.2303 17.011 18.3338 17.2727 18.3338C17.5344 18.3338 17.7854 18.2303 17.971 18.0458C18.1555 17.8602 18.259 17.6092 18.259 17.3475C18.259 17.0858 18.1555 16.8348 17.971 16.6492L16.6932 15.3714ZM19.0507 5.04035C19.0661 4.21667 18.8342 3.40729 18.385 2.7167C17.9359 2.0261 17.29 1.486 16.5308 1.16613C15.7716 0.846246 14.934 0.761274 14.126 0.922179C13.3181 1.08308 12.5769 1.48248 11.9982 2.0688L8.50169 5.59504C8.40803 5.68934 8.33387 5.80117 8.28343 5.92414C8.233 6.0471 8.20727 6.1788 8.20773 6.31171C8.20819 6.44462 8.23483 6.57613 8.28611 6.69875C8.3374 6.82136 8.41234 6.93268 8.50664 7.02633C8.60095 7.11999 8.71277 7.19415 8.83574 7.24459C8.95871 7.29502 9.09041 7.32074 9.22331 7.32028C9.35622 7.31983 9.48774 7.29319 9.61035 7.24191C9.73297 7.19062 9.84428 7.11568 9.93793 7.02138L13.4047 3.49514C13.8123 3.10408 14.3554 2.88572 14.9202 2.88572C15.4851 2.88572 16.0281 3.10408 16.4357 3.49514C16.6364 3.69324 16.7957 3.92921 16.9044 4.18936C17.0132 4.44951 17.0691 4.72867 17.0691 5.01063C17.0691 5.2926 17.0132 5.57175 16.9044 5.8319C16.7957 6.09206 16.6364 6.32803 16.4357 6.52612L12.9095 9.99292C12.725 10.1785 12.6214 10.4296 12.6214 10.6912C12.6214 10.9529 12.725 11.204 12.9095 11.3895C13.0951 11.574 13.3461 11.6776 13.6078 11.6776C13.8695 11.6776 14.1205 11.574 14.3061 11.3895L17.8621 7.93265C18.6202 7.16039 19.0467 6.12255 19.0507 5.04035Z" fill="#F0F0F0"/>
</svg>
