<svg width="137" height="28" viewBox="0 0 137 28" fill="none" xmlns="http://www.w3.org/2000/svg">
<path d="M6.76661 12.5963C7.02931 12.6304 7.29481 12.5588 7.50472 12.3972C7.71463 12.2356 7.85174 11.9972 7.88589 11.7345C7.92004 11.4718 7.84843 11.2063 7.68682 10.9964C7.52522 10.7865 7.28684 10.6494 7.02414 10.6153L5.28083 10.1794C5.15374 10.1405 5.0201 10.1275 4.88788 10.1413C4.75566 10.155 4.62757 10.1953 4.51123 10.2596C4.3949 10.3239 4.2927 10.411 4.21073 10.5157C4.12876 10.6203 4.06869 10.7404 4.03411 10.8688C3.99952 10.9971 3.99113 11.1311 4.00943 11.2628C4.02773 11.3945 4.07234 11.5211 4.14062 11.6352C4.20889 11.7492 4.29942 11.8484 4.40683 11.9267C4.51423 12.0051 4.6363 12.061 4.76577 12.0911L6.50907 12.5567C6.59205 12.5844 6.67914 12.5978 6.76661 12.5963ZM10.59 7.05932C10.648 7.27541 10.7775 7.46548 10.9574 7.59858C11.1373 7.73168 11.3569 7.79996 11.5805 7.7923C11.6658 7.80599 11.7527 7.80599 11.838 7.7923C12.0894 7.72275 12.3033 7.55684 12.4331 7.33059C12.5629 7.10434 12.5982 6.83601 12.5314 6.58387L12.0659 4.84056C12.0357 4.7111 11.9798 4.58903 11.9014 4.48162C11.8231 4.37422 11.724 4.28369 11.6099 4.21541C11.4958 4.14714 11.3692 4.10253 11.2375 4.08423C11.1059 4.06593 10.9719 4.07432 10.8435 4.1089C10.7151 4.14349 10.5951 4.20355 10.4904 4.28553C10.3857 4.3675 10.2987 4.46969 10.2343 4.58603C10.17 4.70237 10.1298 4.83046 10.116 4.96268C10.1022 5.0949 10.1152 5.22854 10.1542 5.35563L10.59 7.05932ZM15.3742 16.9645C15.2816 16.8671 15.1703 16.7895 15.0468 16.7365C14.9234 16.6835 14.7904 16.6562 14.6561 16.6562C14.5217 16.6562 14.3888 16.6835 14.2653 16.7365C14.1419 16.7895 14.0305 16.8671 13.9379 16.9645L10.4711 20.4907C10.0635 20.8818 9.52051 21.1001 8.95564 21.1001C8.39077 21.1001 7.84777 20.8818 7.44016 20.4907C7.2395 20.2926 7.08019 20.0566 6.97145 19.7965C6.86271 19.5363 6.80672 19.2572 6.80672 18.9752C6.80672 18.6933 6.86271 18.4141 6.97145 18.1539C7.08019 17.8938 7.2395 17.6578 7.44016 17.4597L10.9664 13.9929C11.0701 13.9041 11.1543 13.7949 11.2137 13.672C11.2732 13.5491 11.3066 13.4152 11.3119 13.2788C11.3171 13.1424 11.2942 13.0064 11.2444 12.8793C11.1946 12.7522 11.119 12.6367 11.0225 12.5402C10.926 12.4437 10.8105 12.3681 10.6834 12.3183C10.5563 12.2685 10.4203 12.2455 10.2839 12.2508C10.1475 12.2561 10.0136 12.2895 9.89072 12.3489C9.76783 12.4084 9.65856 12.4926 9.56976 12.5963L6.01381 16.0532C5.62879 16.4382 5.32337 16.8953 5.11499 17.3984C4.90662 17.9014 4.79937 18.4406 4.79937 18.9851C4.79937 19.5296 4.90662 20.0688 5.11499 20.5719C5.32337 21.0749 5.62879 21.532 6.01381 21.917C6.39884 22.3021 6.85593 22.6075 7.35899 22.8159C7.86205 23.0242 8.40123 23.1315 8.94574 23.1315C9.49025 23.1315 10.0294 23.0242 10.5325 22.8159C11.0355 22.6075 11.4926 22.3021 11.8777 21.917L15.3742 18.4205C15.4747 18.3278 15.555 18.2152 15.6098 18.0899C15.6647 17.9646 15.6931 17.8293 15.6931 17.6925C15.6931 17.5557 15.6647 17.4204 15.6098 17.2951C15.555 17.1698 15.4747 17.0572 15.3742 16.9645ZM7.18262 8.63424C7.36712 8.81723 7.61613 8.92039 7.87598 8.92149C8.00634 8.92224 8.13557 8.89725 8.25625 8.84796C8.37693 8.79867 8.48669 8.72604 8.57925 8.63424C8.76373 8.44865 8.86728 8.1976 8.86728 7.93592C8.86728 7.67424 8.76373 7.4232 8.57925 7.23761L7.30148 5.95985C7.112 5.79757 6.86825 5.71278 6.61897 5.72241C6.36968 5.73204 6.1332 5.83538 5.9568 6.01179C5.78039 6.18819 5.67705 6.42467 5.66742 6.67395C5.65779 6.92324 5.74259 7.16699 5.90486 7.35647L7.18262 8.63424ZM23.1101 15.8947L21.3668 15.4292C21.2376 15.3845 21.1006 15.3671 20.9643 15.378C20.8281 15.3889 20.6955 15.4278 20.5751 15.4924C20.4546 15.557 20.3488 15.6459 20.2644 15.7533C20.1799 15.8608 20.1186 15.9846 20.0844 16.1169C20.0501 16.2493 20.0436 16.3872 20.0652 16.5222C20.0868 16.6572 20.1362 16.7862 20.2101 16.9011C20.2841 17.0161 20.381 17.1145 20.4948 17.1902C20.6087 17.2659 20.7369 17.3172 20.8715 17.3409L22.6148 17.8064H22.8724C23.1351 17.8406 23.4006 17.769 23.6105 17.6073C23.8204 17.4457 23.9575 17.2074 23.9917 16.9447C24.0258 16.682 23.9542 16.4164 23.7926 16.2065C23.631 15.9966 23.3926 15.8595 23.1299 15.8254L23.1101 15.8947ZM17.2859 20.9265C17.2515 20.801 17.1927 20.6834 17.1128 20.5806C17.033 20.4777 16.9336 20.3917 16.8205 20.3273C16.7073 20.2629 16.5826 20.2214 16.4534 20.2053C16.3242 20.1891 16.1931 20.1986 16.0675 20.2332C15.8161 20.3027 15.6023 20.4686 15.4725 20.6949C15.3427 20.9211 15.3074 21.1895 15.3742 21.4416L15.8397 23.1849C15.8978 23.401 16.0273 23.5911 16.2071 23.7242C16.387 23.8573 16.6066 23.9255 16.8302 23.9179C16.9158 23.9276 17.0022 23.9276 17.0878 23.9179C17.2142 23.8846 17.3329 23.8265 17.4368 23.7471C17.5407 23.6677 17.6279 23.5685 17.6932 23.4552C17.7586 23.342 17.8009 23.2169 17.8177 23.0872C17.8345 22.9575 17.8254 22.8257 17.791 22.6996L17.2859 20.9265ZM20.6932 19.3714C20.5038 19.2091 20.26 19.1244 20.0107 19.134C19.7614 19.1436 19.525 19.247 19.3486 19.4234C19.1722 19.5998 19.0688 19.8362 19.0592 20.0855C19.0496 20.3348 19.1343 20.5786 19.2966 20.768L20.5744 22.0458C20.76 22.2303 21.011 22.3338 21.2727 22.3338C21.5344 22.3338 21.7854 22.2303 21.971 22.0458C22.1555 21.8602 22.259 21.6092 22.259 21.3475C22.259 21.0858 22.1555 20.8348 21.971 20.6492L20.6932 19.3714ZM23.0507 9.04035C23.0661 8.21667 22.8342 7.40729 22.385 6.7167C21.9359 6.0261 21.29 5.486 20.5308 5.16613C19.7716 4.84625 18.934 4.76127 18.126 4.92218C17.3181 5.08308 16.5769 5.48248 15.9982 6.0688L12.5017 9.59504C12.408 9.68934 12.3339 9.80117 12.2834 9.92414C12.233 10.0471 12.2073 10.1788 12.2077 10.3117C12.2082 10.4446 12.2348 10.5761 12.2861 10.6987C12.3374 10.8214 12.4123 10.9327 12.5066 11.0263C12.6009 11.12 12.7128 11.1941 12.8357 11.2446C12.9587 11.295 13.0904 11.3207 13.2233 11.3203C13.3562 11.3198 13.4877 11.2932 13.6104 11.2419C13.733 11.1906 13.8443 11.1157 13.9379 11.0214L17.4047 7.49514C17.8123 7.10408 18.3554 6.88572 18.9202 6.88572C19.4851 6.88572 20.0281 7.10408 20.4357 7.49514C20.6364 7.69324 20.7957 7.92921 20.9044 8.18936C21.0132 8.44951 21.0691 8.72867 21.0691 9.01063C21.0691 9.2926 21.0132 9.57175 20.9044 9.8319C20.7957 10.0921 20.6364 10.328 20.4357 10.5261L16.9095 13.9929C16.725 14.1785 16.6214 14.4296 16.6214 14.6912C16.6214 14.9529 16.725 15.204 16.9095 15.3895C17.0951 15.574 17.3461 15.6776 17.6078 15.6776C17.8695 15.6776 18.1205 15.574 18.3061 15.3895L21.8621 11.9327C22.6202 11.1604 23.0467 10.1225 23.0507 9.04035Z" fill="#181818"/>
<path d="M34.3803 21.18C33.4323 21.18 32.5803 20.964 31.8243 20.532C31.0683 20.1 30.4683 19.512 30.0243 18.768C29.5923 18.012 29.3763 17.16 29.3763 16.212V8.4H31.4463V16.194C31.4463 16.806 31.5723 17.34 31.8243 17.796C32.0883 18.24 32.4423 18.588 32.8863 18.84C33.3303 19.08 33.8283 19.2 34.3803 19.2C34.9443 19.2 35.4423 19.08 35.8743 18.84C36.3063 18.588 36.6483 18.24 36.9003 17.796C37.1523 17.34 37.2783 16.812 37.2783 16.212V8.4H39.3483V16.23C39.3483 17.178 39.1323 18.024 38.7003 18.768C38.2683 19.512 37.6803 20.1 36.9363 20.532C36.1923 20.964 35.3403 21.18 34.3803 21.18ZM41.6781 21V12.36H43.6581V21H41.6781ZM43.6581 16.194L42.9741 15.852C42.9741 14.76 43.2141 13.878 43.6941 13.206C44.1861 12.522 44.9241 12.18 45.9081 12.18C46.3401 12.18 46.7301 12.258 47.0781 12.414C47.4261 12.57 47.7501 12.822 48.0501 13.17L46.7541 14.502C46.5981 14.334 46.4241 14.214 46.2321 14.142C46.0401 14.07 45.8181 14.034 45.5661 14.034C45.0141 14.034 44.5581 14.208 44.1981 14.556C43.8381 14.904 43.6581 15.45 43.6581 16.194ZM49.0082 21V8.04H50.9882V21H49.0082ZM56.9718 21.18C55.9758 21.18 55.1298 21 54.4338 20.64C53.7378 20.28 53.1138 19.752 52.5618 19.056L53.9658 17.652C54.3138 18.156 54.7278 18.552 55.2078 18.84C55.6878 19.116 56.2998 19.254 57.0438 19.254C57.7398 19.254 58.2918 19.11 58.6998 18.822C59.1198 18.534 59.3298 18.138 59.3298 17.634C59.3298 17.214 59.2218 16.872 59.0058 16.608C58.7898 16.344 58.5018 16.128 58.1418 15.96C57.7938 15.78 57.4038 15.624 56.9718 15.492C56.5518 15.348 56.1258 15.192 55.6938 15.024C55.2738 14.844 54.8838 14.622 54.5238 14.358C54.1758 14.094 53.8938 13.752 53.6778 13.332C53.4618 12.912 53.3538 12.378 53.3538 11.73C53.3538 10.986 53.5338 10.356 53.8938 9.84C54.2658 9.312 54.7638 8.91 55.3878 8.634C56.0118 8.358 56.7078 8.22 57.4758 8.22C58.3038 8.22 59.0418 8.382 59.6898 8.706C60.3498 9.03 60.8838 9.444 61.2918 9.948L59.8878 11.352C59.5278 10.944 59.1498 10.644 58.7538 10.452C58.3698 10.248 57.9258 10.146 57.4218 10.146C56.7978 10.146 56.3058 10.272 55.9458 10.524C55.5978 10.776 55.4238 11.13 55.4238 11.586C55.4238 11.97 55.5318 12.282 55.7478 12.522C55.9638 12.75 56.2458 12.948 56.5938 13.116C56.9538 13.272 57.3438 13.422 57.7638 13.566C58.1958 13.71 58.6218 13.872 59.0418 14.052C59.4738 14.232 59.8638 14.466 60.2118 14.754C60.5718 15.03 60.8598 15.39 61.0758 15.834C61.2918 16.278 61.3998 16.836 61.3998 17.508C61.3998 18.636 60.9978 19.53 60.1938 20.19C59.4018 20.85 58.3278 21.18 56.9718 21.18ZM69.1157 21V16.014C69.1157 15.438 68.9297 14.964 68.5577 14.592C68.1977 14.22 67.7297 14.034 67.1537 14.034C66.7697 14.034 66.4277 14.118 66.1277 14.286C65.8277 14.454 65.5937 14.688 65.4257 14.988C65.2577 15.288 65.1737 15.63 65.1737 16.014L64.3997 15.582C64.3997 14.922 64.5437 14.34 64.8317 13.836C65.1197 13.32 65.5157 12.918 66.0197 12.63C66.5357 12.33 67.1117 12.18 67.7477 12.18C68.3957 12.18 68.9717 12.324 69.4757 12.612C69.9797 12.9 70.3757 13.302 70.6637 13.818C70.9517 14.322 71.0957 14.91 71.0957 15.582V21H69.1157ZM63.1937 21V8.04H65.1737V21H63.1937ZM77.0678 21.18C76.2278 21.18 75.4658 20.982 74.7818 20.586C74.0978 20.178 73.5518 19.632 73.1438 18.948C72.7478 18.264 72.5498 17.502 72.5498 16.662C72.5498 15.822 72.7478 15.066 73.1438 14.394C73.5518 13.722 74.0978 13.188 74.7818 12.792C75.4658 12.384 76.2278 12.18 77.0678 12.18C77.9198 12.18 78.6878 12.378 79.3718 12.774C80.0558 13.17 80.5958 13.71 80.9918 14.394C81.3998 15.066 81.6038 15.822 81.6038 16.662C81.6038 17.502 81.3998 18.264 80.9918 18.948C80.5958 19.632 80.0558 20.178 79.3718 20.586C78.6878 20.982 77.9198 21.18 77.0678 21.18ZM77.0678 19.272C77.5598 19.272 77.9918 19.164 78.3638 18.948C78.7478 18.72 79.0418 18.408 79.2458 18.012C79.4618 17.616 79.5698 17.166 79.5698 16.662C79.5698 16.158 79.4618 15.714 79.2458 15.33C79.0298 14.946 78.7358 14.646 78.3638 14.43C77.9918 14.202 77.5598 14.088 77.0678 14.088C76.5878 14.088 76.1558 14.202 75.7718 14.43C75.3998 14.646 75.1058 14.946 74.8898 15.33C74.6858 15.714 74.5838 16.158 74.5838 16.662C74.5838 17.166 74.6858 17.616 74.8898 18.012C75.1058 18.408 75.3998 18.72 75.7718 18.948C76.1558 19.164 76.5878 19.272 77.0678 19.272ZM83.2503 21V12.36H85.2303V21H83.2503ZM85.2303 16.194L84.5463 15.852C84.5463 14.76 84.7863 13.878 85.2663 13.206C85.7583 12.522 86.4963 12.18 87.4803 12.18C87.9123 12.18 88.3023 12.258 88.6503 12.414C88.9983 12.57 89.3223 12.822 89.6223 13.17L88.3263 14.502C88.1703 14.334 87.9963 14.214 87.8043 14.142C87.6123 14.07 87.3903 14.034 87.1383 14.034C86.5863 14.034 86.1303 14.208 85.7703 14.556C85.4103 14.904 85.2303 15.45 85.2303 16.194ZM91.912 21V8.76H93.892V21H91.912ZM89.842 14.16V12.36H95.962V14.16H89.842ZM101.169 21.18C100.305 21.18 99.5246 20.988 98.8286 20.604C98.1446 20.208 97.5986 19.668 97.1906 18.984C96.7946 18.3 96.5966 17.532 96.5966 16.68C96.5966 15.828 96.7946 15.066 97.1906 14.394C97.5866 13.71 98.1206 13.17 98.7926 12.774C99.4766 12.378 100.233 12.18 101.061 12.18C101.865 12.18 102.573 12.366 103.185 12.738C103.809 13.11 104.295 13.62 104.643 14.268C105.003 14.916 105.183 15.654 105.183 16.482C105.183 16.626 105.171 16.776 105.147 16.932C105.135 17.076 105.111 17.238 105.075 17.418H97.9826V15.798H104.049L103.311 16.446C103.287 15.918 103.185 15.474 103.005 15.114C102.825 14.754 102.567 14.478 102.231 14.286C101.907 14.094 101.505 13.998 101.025 13.998C100.521 13.998 100.083 14.106 99.7106 14.322C99.3386 14.538 99.0506 14.844 98.8466 15.24C98.6426 15.624 98.5406 16.086 98.5406 16.626C98.5406 17.166 98.6486 17.64 98.8646 18.048C99.0806 18.456 99.3866 18.774 99.7826 19.002C100.179 19.218 100.635 19.326 101.151 19.326C101.595 19.326 102.003 19.248 102.375 19.092C102.759 18.936 103.083 18.708 103.347 18.408L104.607 19.686C104.187 20.178 103.677 20.55 103.077 20.802C102.477 21.054 101.841 21.18 101.169 21.18ZM112.692 21V16.014C112.692 15.438 112.506 14.964 112.134 14.592C111.774 14.22 111.306 14.034 110.73 14.034C110.346 14.034 110.004 14.118 109.704 14.286C109.404 14.454 109.17 14.688 109.002 14.988C108.834 15.288 108.75 15.63 108.75 16.014L107.976 15.582C107.976 14.922 108.12 14.34 108.408 13.836C108.696 13.32 109.092 12.918 109.596 12.63C110.112 12.33 110.688 12.18 111.324 12.18C111.972 12.18 112.548 12.348 113.052 12.684C113.556 13.008 113.952 13.434 114.24 13.962C114.528 14.478 114.672 15.018 114.672 15.582V21H112.692ZM106.77 21V12.36H108.75V21H106.77ZM120.698 21.18C119.834 21.18 119.054 20.988 118.358 20.604C117.674 20.208 117.128 19.668 116.72 18.984C116.324 18.3 116.126 17.532 116.126 16.68C116.126 15.828 116.324 15.066 116.72 14.394C117.116 13.71 117.65 13.17 118.322 12.774C119.006 12.378 119.762 12.18 120.59 12.18C121.394 12.18 122.102 12.366 122.714 12.738C123.338 13.11 123.824 13.62 124.172 14.268C124.532 14.916 124.712 15.654 124.712 16.482C124.712 16.626 124.7 16.776 124.676 16.932C124.664 17.076 124.64 17.238 124.604 17.418H117.512V15.798H123.578L122.84 16.446C122.816 15.918 122.714 15.474 122.534 15.114C122.354 14.754 122.096 14.478 121.76 14.286C121.436 14.094 121.034 13.998 120.554 13.998C120.05 13.998 119.612 14.106 119.24 14.322C118.868 14.538 118.58 14.844 118.376 15.24C118.172 15.624 118.07 16.086 118.07 16.626C118.07 17.166 118.178 17.64 118.394 18.048C118.61 18.456 118.916 18.774 119.312 19.002C119.708 19.218 120.164 19.326 120.68 19.326C121.124 19.326 121.532 19.248 121.904 19.092C122.288 18.936 122.612 18.708 122.876 18.408L124.136 19.686C123.716 20.178 123.206 20.55 122.606 20.802C122.006 21.054 121.37 21.18 120.698 21.18ZM126.299 21V12.36H128.279V21H126.299ZM128.279 16.194L127.595 15.852C127.595 14.76 127.835 13.878 128.315 13.206C128.807 12.522 129.545 12.18 130.529 12.18C130.961 12.18 131.351 12.258 131.699 12.414C132.047 12.57 132.371 12.822 132.671 13.17L131.375 14.502C131.219 14.334 131.045 14.214 130.853 14.142C130.661 14.07 130.439 14.034 130.187 14.034C129.635 14.034 129.179 14.208 128.819 14.556C128.459 14.904 128.279 15.45 128.279 16.194Z" fill="#181818"/>
</svg>
